<svg width="100" height="100" viewBox="0 0 100 100" fill="none" xmlns="http://www.w3.org/2000/svg">
<circle cx="50" cy="50" r="50" fill="#D64653"/>
<path d="M52 90L51 78H50C40.5333 78 32.5 74.7 25.9 68.1C19.3 61.5 16 53.4667 16 44C16 34.5333 19.3 26.5 25.9 19.9C32.5 13.3 40.5333 10 50 10C54.7333 10 59.15 10.8833 63.25 12.65C67.35 14.4167 70.95 16.85 74.05 19.95C77.15 23.05 79.5833 26.65 81.35 30.75C83.1167 34.85 84 39.2667 84 44C84 49 83.1833 53.8 81.55 58.4C79.9167 63 77.6833 67.2667 74.85 71.2C72.0167 75.1333 68.65 78.7 64.75 81.9C60.85 85.1 56.6 87.8 52 90ZM60 75.4C64.7333 71.4 68.5833 66.7167 71.55 61.35C74.5167 55.9833 76 50.2 76 44C76 36.7333 73.4833 30.5833 68.45 25.55C63.4167 20.5167 57.2667 18 50 18C42.7333 18 36.5833 20.5167 31.55 25.55C26.5167 30.5833 24 36.7333 24 44C24 51.2667 26.5167 57.4167 31.55 62.45C36.5833 67.4833 42.7333 70 50 70H60V75.4ZM49.9 65.9C51.0333 65.9 52 65.5 52.8 64.7C53.6 63.9 54 62.9333 54 61.8C54 60.6667 53.6 59.7 52.8 58.9C52 58.1 51.0333 57.7 49.9 57.7C48.7667 57.7 47.8 58.1 47 58.9C46.2 59.7 45.8 60.6667 45.8 61.8C45.8 62.9333 46.2 63.9 47 64.7C47.8 65.5 48.7667 65.9 49.9 65.9ZM47 53.2H53C53 51.2 53.2 49.8 53.6 49C54 48.2 55.2667 46.7333 57.4 44.6C58.6 43.4 59.6 42.1 60.4 40.7C61.2 39.3 61.6 37.8 61.6 36.2C61.6 32.8 60.45 30.25 58.15 28.55C55.85 26.85 53.1333 26 50 26C47.0667 26 44.6 26.8167 42.6 28.45C40.6 30.0833 39.2 32.0667 38.4 34.4L44 36.6C44.3333 35.4667 44.9667 34.35 45.9 33.25C46.8333 32.15 48.2 31.6 50 31.6C51.8 31.6 53.15 32.1 54.05 33.1C54.95 34.1 55.4 35.2 55.4 36.4C55.4 37.5333 55.0667 38.55 54.4 39.45C53.7333 40.35 52.9333 41.2667 52 42.2C49.6667 44.2 48.25 45.7833 47.75 46.95C47.25 48.1167 47 50.2 47 53.2Z" fill="white"/>
</svg>
