<svg width="100" height="100" viewBox="0 0 100 100" fill="none" xmlns="http://www.w3.org/2000/svg">
<circle cx="50" cy="50" r="50" fill="#48CF86"/>
<path d="M18.7514 50.0025C18.7506 44.7551 20.0736 39.6 22.5875 35.0553C25.1014 30.5106 28.7175 26.7365 33.0723 24.1124C37.4272 21.4883 42.3673 20.1068 47.3961 20.1066C52.4248 20.1064 57.3651 21.4875 61.7201 24.1112C62.3179 24.4659 63.0259 24.5594 63.6895 24.3714C64.3532 24.1834 64.9186 23.7291 65.2625 23.1077C65.6063 22.4863 65.7007 21.7481 65.5249 21.0544C65.3491 20.3607 64.9175 19.7676 64.3243 19.4047C57.8704 15.5166 50.3674 13.9592 42.9789 14.9741C35.5903 15.989 28.7292 19.5194 23.4594 25.0179C18.1897 30.5164 14.8059 37.6756 13.8329 45.3853C12.8598 53.095 14.3518 60.9244 18.0775 67.6591C21.8033 74.3938 27.5545 79.6575 34.4392 82.634C41.324 85.6104 48.9576 86.1332 56.1561 84.1213C63.3547 82.1093 69.7159 77.6751 74.2532 71.5063C78.7905 65.3375 81.2504 57.7788 81.2514 50.0025C81.2514 49.2818 80.977 48.5907 80.4886 48.0811C80.0002 47.5714 79.3379 47.2852 78.6472 47.2852C77.9565 47.2852 77.2941 47.5714 76.8058 48.0811C76.3174 48.5907 76.043 49.2818 76.043 50.0025C76.043 57.9302 73.025 65.5332 67.6529 71.1389C62.2807 76.7446 54.9945 79.8938 47.3972 79.8938C39.7998 79.8938 32.5137 76.7446 27.1415 71.1389C21.7694 65.5332 18.7514 57.9302 18.7514 50.0025Z" fill="white"/>
<path d="M85.6986 24.7619C85.9407 24.5093 86.1328 24.2093 86.2638 23.8792C86.3949 23.5491 86.4623 23.1953 86.4623 22.838C86.4623 22.4807 86.3949 22.1269 86.2638 21.7968C86.1328 21.4667 85.9407 21.1667 85.6986 20.9141C85.4565 20.6614 85.169 20.461 84.8527 20.3243C84.5363 20.1876 84.1973 20.1172 83.8549 20.1172C83.5124 20.1172 83.1734 20.1876 82.857 20.3243C82.5407 20.461 82.2532 20.6614 82.0111 20.9141L47.3965 57.0391L33.6153 42.6532C33.3731 42.4006 33.0857 42.2002 32.7694 42.0634C32.453 41.9267 32.1139 41.8563 31.7715 41.8563C31.4291 41.8563 31.09 41.9267 30.7737 42.0634C30.4573 42.2002 30.1699 42.4006 29.9278 42.6532C29.6856 42.9059 29.4936 43.2058 29.3625 43.5359C29.2315 43.866 29.1641 44.2198 29.1641 44.5771C29.1641 44.9344 29.2315 45.2882 29.3625 45.6184C29.4936 45.9485 29.6856 46.2484 29.9278 46.501L45.5528 62.8054C45.7947 63.0585 46.082 63.2592 46.3984 63.3962C46.7148 63.5332 47.054 63.6037 47.3965 63.6037C47.7391 63.6037 48.0782 63.5332 48.3946 63.3962C48.711 63.2592 48.9984 63.0585 49.2403 62.8054L85.6986 24.7619Z" fill="white"/>
</svg>
