<svg width="100" height="100" viewBox="0 0 100 100" fill="none" xmlns="http://www.w3.org/2000/svg">
<circle cx="50" cy="50" r="50" fill="#FFCC00"/>
<path d="M14 73L50 14L86 73H14ZM25.2909 66.7895H74.7091L50 26.4211L25.2909 66.7895ZM50 63.6842C50.9273 63.6842 51.7045 63.3866 52.3318 62.7915C52.9591 62.1963 53.2727 61.4588 53.2727 60.5789C53.2727 59.6991 52.9591 58.9616 52.3318 58.3664C51.7045 57.7713 50.9273 57.4737 50 57.4737C49.0727 57.4737 48.2955 57.7713 47.6682 58.3664C47.0409 58.9616 46.7273 59.6991 46.7273 60.5789C46.7273 61.4588 47.0409 62.1963 47.6682 62.7915C48.2955 63.3866 49.0727 63.6842 50 63.6842ZM46.7273 54.3684H53.2727V38.8421H46.7273V54.3684Z" fill="white"/>
</svg>
