<?xml version="1.0" encoding="UTF-8" standalone="no"?>
<!DOCTYPE svg PUBLIC "-//W3C//DTD SVG 1.1//EN"
 "http://www.w3.org/Graphics/SVG/1.1/DTD/svg11.dtd">
<!-- Generated by graphviz version 2.47.0 (20210316.0004)
 -->
<!-- Title: dependencies Pages: 1 -->
<svg width="1425pt" height="284pt"
 viewBox="0.00 0.00 1425.00 284.00" xmlns="http://www.w3.org/2000/svg" xmlns:xlink="http://www.w3.org/1999/xlink">
<g id="graph0" class="graph" transform="scale(1 1) rotate(0) translate(4 280)">
<title>dependencies</title>
<polygon fill="white" stroke="transparent" points="-4,4 -4,-280 1421,-280 1421,4 -4,4"/>
<text text-anchor="start" x="687.51" y="-42.4" font-family="Times-12" font-weight="bold" font-size="14.00">Legend</text>
<polygon fill="#ffffb3" stroke="transparent" points="474.5,-10 474.5,-30 494.5,-30 494.5,-10 474.5,-10"/>
<text text-anchor="start" x="498.13" y="-15.4" font-family="Times-12" font-size="14.00"> &#160;Declarations</text>
<polygon fill="#8dd3c7" stroke="transparent" points="587.5,-10 587.5,-30 607.5,-30 607.5,-10 587.5,-10"/>
<text text-anchor="start" x="611.23" y="-15.4" font-family="Times-12" font-size="14.00"> &#160;Module</text>
<polygon fill="#80b1d3" stroke="transparent" points="673.5,-10 673.5,-30 693.5,-30 693.5,-10 673.5,-10"/>
<text text-anchor="start" x="697.28" y="-15.4" font-family="Times-12" font-size="14.00"> &#160;Bootstrap</text>
<polygon fill="#fdb462" stroke="transparent" points="770.5,-10 770.5,-30 790.5,-30 790.5,-10 770.5,-10"/>
<text text-anchor="start" x="794.17" y="-15.4" font-family="Times-12" font-size="14.00"> &#160;Providers</text>
<polygon fill="#fb8072" stroke="transparent" points="866.5,-10 866.5,-30 886.5,-30 886.5,-10 866.5,-10"/>
<text text-anchor="start" x="890.23" y="-15.4" font-family="Times-12" font-size="14.00"> &#160;Exports</text>
<g id="clust1" class="cluster">
<title>cluster_AppModule</title>
<polygon fill="none" stroke="black" stroke-dasharray="1,5" points="8,-70 8,-268 1409,-268 1409,-70 8,-70"/>
</g>
<g id="clust2" class="cluster">
<title>cluster_AppModule_declarations</title>
<polygon fill="none" stroke="black" points="993,-78 993,-130 1401,-130 1401,-78 993,-78"/>
</g>
<g id="clust6" class="cluster">
<title>cluster_AppModule_imports</title>
<polygon fill="none" stroke="black" points="186,-78 186,-130 985,-130 985,-78 186,-78"/>
</g>
<g id="clust8" class="cluster">
<title>cluster_AppModule_bootstrap</title>
<polygon fill="none" stroke="black" points="784,-208 784,-260 908,-260 908,-208 784,-208"/>
</g>
<g id="clust9" class="cluster">
<title>cluster_AppModule_providers</title>
<polygon fill="none" stroke="black" points="16,-78 16,-130 178,-130 178,-78 16,-78"/>
</g>
<!-- AppComponent -->
<g id="node1" class="node">
<title>AppComponent</title>
<polygon fill="#ffffb3" stroke="black" points="1392.94,-122 1287.06,-122 1287.06,-86 1392.94,-86 1392.94,-122"/>
<text text-anchor="middle" x="1340" y="-99.8" font-family="Times,serif" font-size="14.00">AppComponent</text>
</g>
<!-- AppModule -->
<g id="node4" class="node">
<title>AppModule</title>
<polygon fill="#8dd3c7" stroke="black" points="887.66,-187 884.66,-191 863.66,-191 860.66,-187 804.34,-187 804.34,-151 887.66,-151 887.66,-187"/>
<text text-anchor="middle" x="846" y="-164.8" font-family="Times,serif" font-size="14.00">AppModule</text>
</g>
<!-- AppComponent&#45;&gt;AppModule -->
<g id="edge1" class="edge">
<title>AppComponent&#45;&gt;AppModule</title>
<path fill="none" stroke="black" d="M1340,-122.29C1340,-144.21 1340,-178 1340,-178 1340,-178 897.69,-178 897.69,-178"/>
<polygon fill="black" stroke="black" points="897.69,-174.5 887.69,-178 897.69,-181.5 897.69,-174.5"/>
</g>
<!-- ObjectToArrayPipe -->
<g id="node2" class="node">
<title>ObjectToArrayPipe</title>
<polygon fill="#ffffb3" stroke="black" points="1269.4,-122 1142.6,-122 1142.6,-86 1269.4,-86 1269.4,-122"/>
<text text-anchor="middle" x="1206" y="-99.8" font-family="Times,serif" font-size="14.00">ObjectToArrayPipe</text>
</g>
<!-- ObjectToArrayPipe&#45;&gt;AppModule -->
<g id="edge2" class="edge">
<title>ObjectToArrayPipe&#45;&gt;AppModule</title>
<path fill="none" stroke="black" d="M1206,-122.11C1206,-141.34 1206,-169 1206,-169 1206,-169 898,-169 898,-169"/>
<polygon fill="black" stroke="black" points="898,-165.5 888,-169 898,-172.5 898,-165.5"/>
</g>
<!-- SignUpComponent -->
<g id="node3" class="node">
<title>SignUpComponent</title>
<polygon fill="#ffffb3" stroke="black" points="1125.11,-122 1000.89,-122 1000.89,-86 1125.11,-86 1125.11,-122"/>
<text text-anchor="middle" x="1063" y="-99.8" font-family="Times,serif" font-size="14.00">SignUpComponent</text>
</g>
<!-- SignUpComponent&#45;&gt;AppModule -->
<g id="edge3" class="edge">
<title>SignUpComponent&#45;&gt;AppModule</title>
<path fill="none" stroke="black" d="M1063,-122.03C1063,-138.4 1063,-160 1063,-160 1063,-160 897.84,-160 897.84,-160"/>
<polygon fill="black" stroke="black" points="897.84,-156.5 887.84,-160 897.84,-163.5 897.84,-156.5"/>
</g>
<!-- AppComponent  -->
<g id="node9" class="node">
<title>AppComponent </title>
<polygon fill="#80b1d3" stroke="black" points="900.44,-252 791.56,-252 791.56,-216 900.44,-216 900.44,-252"/>
<text text-anchor="middle" x="846" y="-229.8" font-family="Times,serif" font-size="14.00">AppComponent </text>
</g>
<!-- AppModule&#45;&gt;AppComponent  -->
<g id="edge8" class="edge">
<title>AppModule&#45;&gt;AppComponent </title>
<path fill="none" stroke="black" stroke-dasharray="1,5" d="M846,-187.11C846,-187.11 846,-205.99 846,-205.99"/>
<polygon fill="black" stroke="black" points="842.5,-205.99 846,-215.99 849.5,-205.99 842.5,-205.99"/>
</g>
<!-- AppRoutingModule -->
<g id="node5" class="node">
<title>AppRoutingModule</title>
<polygon fill="#8dd3c7" stroke="black" points="977.27,-122 974.27,-126 953.27,-126 950.27,-122 848.73,-122 848.73,-86 977.27,-86 977.27,-122"/>
<text text-anchor="middle" x="913" y="-99.8" font-family="Times,serif" font-size="14.00">AppRoutingModule</text>
</g>
<!-- AppRoutingModule&#45;&gt;AppModule -->
<g id="edge4" class="edge">
<title>AppRoutingModule&#45;&gt;AppModule</title>
<path fill="none" stroke="black" d="M868.22,-122.11C868.22,-122.11 868.22,-140.99 868.22,-140.99"/>
<polygon fill="black" stroke="black" points="864.72,-140.99 868.22,-150.99 871.72,-140.99 864.72,-140.99"/>
</g>
<!-- StepperModule -->
<g id="node6" class="node">
<title>StepperModule</title>
<polygon fill="#8dd3c7" stroke="black" points="830.31,-122 827.31,-126 806.31,-126 803.31,-122 727.69,-122 727.69,-86 830.31,-86 830.31,-122"/>
<text text-anchor="middle" x="779" y="-99.8" font-family="Times,serif" font-size="14.00">StepperModule</text>
</g>
<!-- StepperModule&#45;&gt;AppModule -->
<g id="edge5" class="edge">
<title>StepperModule&#45;&gt;AppModule</title>
<path fill="none" stroke="black" d="M817.16,-122.11C817.16,-122.11 817.16,-140.99 817.16,-140.99"/>
<polygon fill="black" stroke="black" points="813.66,-140.99 817.16,-150.99 820.66,-140.99 813.66,-140.99"/>
</g>
<!-- provideAuth(() =&gt; getAuth()) -->
<g id="node7" class="node">
<title>provideAuth(() =&gt; getAuth())</title>
<polygon fill="#8dd3c7" stroke="black" points="710.12,-122 707.12,-126 686.12,-126 683.12,-122 527.88,-122 527.88,-86 710.12,-86 710.12,-122"/>
<text text-anchor="middle" x="619" y="-99.8" font-family="Times,serif" font-size="14.00">provideAuth(() =&gt; getAuth())</text>
</g>
<!-- provideAuth(() =&gt; getAuth())&#45;&gt;AppModule -->
<g id="edge6" class="edge">
<title>provideAuth(() =&gt; getAuth())&#45;&gt;AppModule</title>
<path fill="none" stroke="black" d="M619,-122.03C619,-138.4 619,-160 619,-160 619,-160 794.1,-160 794.1,-160"/>
<polygon fill="black" stroke="black" points="794.1,-163.5 804.1,-160 794.1,-156.5 794.1,-163.5"/>
</g>
<!-- provideFirebaseApp(() =&gt; initializeApp(environment -->
<g id="node8" class="node">
<title>provideFirebaseApp(() =&gt; initializeApp(environment</title>
<polygon fill="#8dd3c7" stroke="black" points="509.58,-122 506.58,-126 485.58,-126 482.58,-122 194.42,-122 194.42,-86 509.58,-86 509.58,-122"/>
<text text-anchor="middle" x="352" y="-99.8" font-family="Times,serif" font-size="14.00">provideFirebaseApp(() =&gt; initializeApp(environment</text>
</g>
<!-- provideFirebaseApp(() =&gt; initializeApp(environment&#45;&gt;AppModule -->
<g id="edge7" class="edge">
<title>provideFirebaseApp(() =&gt; initializeApp(environment&#45;&gt;AppModule</title>
<path fill="none" stroke="black" d="M352,-122.11C352,-141.34 352,-169 352,-169 352,-169 794.31,-169 794.31,-169"/>
<polygon fill="black" stroke="black" points="794.31,-172.5 804.31,-169 794.31,-165.5 794.31,-172.5"/>
</g>
<!-- AuthInterceptor -->
<g id="node10" class="node">
<title>AuthInterceptor</title>
<ellipse fill="#fdb462" stroke="black" cx="97" cy="-104" rx="72.91" ry="18"/>
<text text-anchor="middle" x="97" y="-99.8" font-family="Times,serif" font-size="14.00">AuthInterceptor</text>
</g>
<!-- AuthInterceptor&#45;&gt;AppModule -->
<g id="edge9" class="edge">
<title>AuthInterceptor&#45;&gt;AppModule</title>
<path fill="none" stroke="black" d="M97,-122.29C97,-144.21 97,-178 97,-178 97,-178 794.13,-178 794.13,-178"/>
<polygon fill="black" stroke="black" points="794.13,-181.5 804.13,-178 794.13,-174.5 794.13,-181.5"/>
</g>
</g>
</svg>
